<?xml version="1.0" encoding="UTF-8" standalone="no"?>
<!-- Created with Inkscape (http://www.inkscape.org/) -->

<svg
   xmlns:dc="http://purl.org/dc/elements/1.1/"
   xmlns:cc="http://creativecommons.org/ns#"
   xmlns:rdf="http://www.w3.org/1999/02/22-rdf-syntax-ns#"
   xmlns:svg="http://www.w3.org/2000/svg"
   xmlns="http://www.w3.org/2000/svg"
   xmlns:sodipodi="http://sodipodi.sourceforge.net/DTD/sodipodi-0.dtd"
   xmlns:inkscape="http://www.inkscape.org/namespaces/inkscape"
   width="819.81274"
   height="801.9024"
   id="svg2"
   version="1.1"
   inkscape:version="0.47 r22583"
   sodipodi:docname="admin_tools.svg">
  <defs
     id="defs4">
    <inkscape:perspective
       sodipodi:type="inkscape:persp3d"
       inkscape:vp_x="0 : 526.18109 : 1"
       inkscape:vp_y="0 : 1000 : 0"
       inkscape:vp_z="744.09448 : 526.18109 : 1"
       inkscape:persp3d-origin="372.04724 : 350.78739 : 1"
       id="perspective10" />
  </defs>
  <sodipodi:namedview
     id="base"
     pagecolor="#ffffff"
     bordercolor="#666666"
     borderopacity="1.0"
     inkscape:pageopacity="0.0"
     inkscape:pageshadow="2"
     inkscape:zoom="0.35"
     inkscape:cx="983.51788"
     inkscape:cy="601.44005"
     inkscape:document-units="px"
     inkscape:current-layer="layer1"
     showgrid="false"
     inkscape:window-width="1440"
     inkscape:window-height="801"
     inkscape:window-x="0"
     inkscape:window-y="0"
     inkscape:window-maximized="0" />
  <metadata
     id="metadata7">
    <rdf:RDF>
      <cc:Work
         rdf:about="">
        <dc:format>image/svg+xml</dc:format>
        <dc:type
           rdf:resource="http://purl.org/dc/dcmitype/StillImage" />
        <dc:title></dc:title>
      </cc:Work>
    </rdf:RDF>
  </metadata>
  <g
     inkscape:label="Layer 1"
     inkscape:groupmode="layer"
     id="layer1"
     transform="translate(1138.5179,-331.89985)">
    <g
       id="g3637"
       transform="matrix(-0.60220798,0.79833924,-0.79833924,-0.60220798,-568.91854,1748.1963)"
       style="stroke:#000000;stroke-width:20;stroke-miterlimit:4;stroke-opacity:1;stroke-dasharray:none"
       inkscape:export-filename="/Users/andersbr/Documents/coop/art/web/admin_tools.png"
       inkscape:export-xdpi="5.6116552"
       inkscape:export-ydpi="5.6116552">
      <path
         id="path3599"
         d="m -720,340.9375 c -14.92025,0 -29.63885,0.84333 -44.125,2.46875 l 1.375,12.625 3.78125,31.375 -0.375,0.0312 0,0.0312 -0.15625,0 -0.0937,0 -4.28125,0.53125 -3.625,0.46875 0,0.0312 -4.25,0.59375 -0.28125,0.0312 -0.34375,0.0625 -3.59375,0.59375 -0.625,0.0937 -3.59375,0.625 -4.1875,0.75 -0.53125,0.125 -0.0937,0 -3.5625,0.71875 -0.59375,0.125 -3.5625,0.75 -0.59375,0.125 -3.53125,0.78125 -0.625,0.15625 -3.5,0.84375 -4.09375,1 -0.5,0.125 -0.0937,0.0312 -3.5,0.9375 -0.59375,0.15625 -3.4375,0.9375 -0.625,0.1875 -3.4375,1 -0.59375,0.1875 -3.40625,1.03125 -0.59375,0.1875 -3.40625,1.0625 -0.0625,0.0312 -0.53125,0.15625 -3.375,1.125 -0.59375,0.21875 -3.375,1.15625 -0.5625,0.1875 -3.34375,1.21875 -0.3125,0.125 -0.28125,0.0937 -3.3125,1.25 -0.59375,0.21875 -1.90625,0.71875 -16.125,-41.65625 c -31.01955,11.84799 -60.15932,27.53518 -86.8125,46.46875 l 26.53125,36.8125 -0.8125,0.5625 -0.4375,0.3125 -0.0312,0.0312 -2.8125,2.09375 -3.28125,2.46875 -0.46875,0.375 -2.78125,2.15625 -0.46875,0.34375 -2.75,2.1875 -0.1875,0.15625 -0.28125,0.21875 -2.71875,2.21875 -0.4375,0.375 -2.71875,2.25 -0.40625,0.34375 -0.0312,0.0312 -2.65625,2.28125 -0.1875,0.1875 -0.28125,0.21875 -2.625,2.3125 -0.4375,0.375 -2.625,2.34375 -0.4375,0.40625 -2.5625,2.375 -0.0625,0.0625 -0.375,0.34375 -2.5625,2.40625 -0.4375,0.40625 -2.53125,2.4375 -0.40625,0.40625 -2.5,2.46875 -0.40625,0.4375 -2.46875,2.46875 -0.4375,0.4375 -2.40625,2.53125 -0.4375,0.4375 -2.375,2.53125 -0.25,0.28125 -0.15625,0.15625 -2.375,2.59375 -0.40625,0.4375 -2.34375,2.59375 -0.40625,0.4375 L -978,503 l -0.28125,0.34375 -0.0937,0.0937 -2.28125,2.65625 -0.375,0.46875 -2.5,2.96875 -35.5625,-29.6875 c -21.251,25.14417 -39.4143,52.9871 -53.8438,82.96875 l 43.25,19.875 -1.4686,3.1875 -0.25,0.5625 -1.4376,3.21875 -0.031,0.0937 -0.2188,0.46875 -1.4062,3.25 -0.25,0.5625 -1.3438,3.28125 -1.5624,3.84375 -0.2189,0.59375 -1.2811,3.3125 -0.2189,0.5625 -1.25,3.34375 -0.2188,0.5625 -1.1874,3.34375 -0.2188,0.59375 -1.1562,3.375 -0.125,0.40625 -0.063,0.15625 -1.125,3.40625 -0.1874,0.59375 -1.0938,3.40625 -0.1875,0.5625 -1.0313,3.4375 -0.1874,0.59375 -1,3.4375 -0.1563,0.59375 -0.9687,3.46875 -0.125,0.46875 -0.031,0.125 -0.9063,3.46875 -0.1562,0.625 -0.875,3.46875 -0.031,0.0937 -0.125,0.53125 -0.8438,3.5 -0.125,0.59375 -0.8125,3.53125 -0.125,0.625 -0.75,3.53125 -0.094,0.4375 -0.031,0.1875 -0.6875,3.5625 -0.125,0.59375 -0.6875,3.75 -48.125,-8.90625 c -4.7434,24.35544 -7.25,49.53814 -7.25,75.28125 0,8.10663 0.2642,16.14057 0.75,24.125 l 22.1563,-1.53125 28.0624,-2.3125 0.031,0.34375 0.031,0.28125 0.2812,3.6875 0.031,0 0.4063,4.34375 0.031,0.25 0.031,0.375 0.4688,4.28125 -0.031,0 0.4687,3.65625 0.5626,4.28125 0.094,0.625 0.5313,3.625 0.094,0.59375 0.5625,3.625 0.094,0.625 0.75,4.1875 0.6562,3.59375 0.125,0.625 0.6875,3.53125 0.031,0.1875 0.094,0.4375 0.75,3.53125 0.125,0.625 0.8125,3.53125 0.125,0.59375 0.8438,3.53125 0.1562,0.59375 0.875,3.5 0.1562,0.59375 0.9063,3.46875 0.031,0.0625 0.125,0.53125 0.9687,3.46875 0.1563,0.59375 1,3.4375 0.1874,0.59375 1.0313,3.4375 0.125,0.375 0.062,0.21875 1.0938,3.40625 0.1874,0.5625 1.125,3.40625 0.031,0.0625 0.1563,0.5 0.5,1.40625 -49,16.90625 c 10.5965,32.21863 25.2781,62.5841 43.4062,90.5 l 44.1875,-29.46875 1,1.46875 0.3437,0.5 1.9688,2.90625 0.094,0.125 0.25,0.375 2.03125,2.875 0.34375,0.46875 2.03125,2.84375 0.375,0.5 2.0625,2.8125 0.375,0.46875 2.09375,2.8125 0.375,0.46875 2.15625,2.78125 0.3125,0.40625 0.0625,0.0625 2.1875,2.75 0.375,0.4375 2.1875,2.71875 0.40625,0.46875 2.25,2.6875 0.375,0.46875 2.28125,2.65625 0.0937,0.0937 0.28125,0.34375 2.3125,2.65625 0.40625,0.4375 2.34375,2.59375 0.40625,0.46875 2.375,2.5625 0.15625,0.15625 0.25,0.28125 2.8125,2.96875 -0.0312,0.0312 2.4375,2.5 0.4375,0.4375 2.46875,2.5 0.1875,0.1875 0.21875,0.21875 2.5,2.46875 0.40625,0.40625 2.53125,2.4375 0.4375,0.40625 2.5625,2.40625 0.375,0.34375 0.0625,0.0625 2.5625,2.375 0.4375,0.40625 2.25,2 -36.25,40.3751 c 24.86466,22.6221 52.66979,42.0786 82.75,57.75 l 4.96875,-9.5313 19.9375,-39.5625 0.5,0.25 0,-0.031 0.0625,0.031 0,0.031 3.125,1.5626 0.5625,0.2812 3.71875,1.8125 3.1875,1.5 0.5625,0.2813 3.1875,1.4687 0.53125,0.2187 0.0312,0.031 3.25,1.4375 0.5625,0.25 3.25,1.4062 0.5625,0.2188 3.84375,1.5938 0,0.031 3.28125,1.3125 0,-0.031 3.875,1.5313 0.59375,0.2187 3.3125,1.2188 0.59375,0.2189 3.34375,1.2186 0.5625,0.1875 3.375,1.1562 0.59375,0.2188 3.375,1.125 0.53125,0.1562 0.0625,0.031 3.40625,1.0625 0.59375,0.1875 4,1.2187 3.4375,1 0.625,0.1876 3.4375,0.9687 0,-0.031 4.09375,1.0938 0.15625,0.031 0.4375,0.125 3.5,0.875 0.59375,0.1563 3.5,0.8125 0.625,0.1562 3.375,0.75 -12.15625,54.25 c 27.55772,6.1494 56.2138,9.375 85.625,9.375 5.06672,0 10.10498,-0.09 15.125,-0.2812 l -0.65625,-20.7188 -1.5625,-34.9374 0.4375,-0.031 0.21875,0 3.71875,-0.1563 0.15625,0 0.5,-0.031 4.34375,-0.2812 0,0.031 3.71875,-0.2812 4.34375,-0.3438 0.625,-0.062 3.6875,-0.3437 0.25,-0.031 0.375,-0.031 3.6875,-0.4061 0.625,-0.062 4.28125,-0.5313 3.625,-0.4687 0.625,-0.094 3.625,-0.5313 0.125,-0.031 0.5,-0.062 3.59375,-0.5938 0.625,-0.094 3.59375,-0.625 4.1875,-0.75 0.53125,-0.125 0.0937,0 3.5625,-0.7187 0.59375,-0.125 3.5625,-0.75 0.59375,-0.125 3.53125,-0.7813 0.625,-0.1562 3.5,-0.8125 0.59375,-0.1563 3.5,-0.875 0.4375,-0.125 0.15625,-0.031 4.09375,-1.0939 0,0.031 3.4375,-0.9686 0.625,-0.1876 3.4375,-1 0.59375,-0.1562 0.90625,-0.2812 16.15625,53.0624 c 32.66879,-10.0167 63.52461,-24.1879 91.9375,-41.9062 l -28.78125,-46.7188 2.1875,-1.3437 0.53125,-0.3437 2.96875,-1.875 0.5,-0.3126 2.9375,-1.9062 0.5,-0.3438 2.9375,-1.9374 0.5,-0.3438 2.875,-1.9688 0.0625,-0.031 0.4375,-0.3125 2.875,-2.0313 0.5,-0.3437 2.84375,-2.0625 0.40625,-0.2812 0.0625,-0.063 2.8125,-2.0937 3.28125,-2.4688 0.46875,-0.375 2.78125,-2.125 0.46875,-0.375 2.75,-2.1875 0.0625,-0.0625 0.40625,-0.3125 2.71875,-2.21875 0.4375,-0.375 2.71875,-2.25 0.40625,-0.34375 0.0312,-0.0312 2.65625,-2.28125 0.1875,-0.1875 0.28125,-0.21875 2.625,-2.3125 0.4375,-0.375 2.625,-2.34375 0.4375,-0.40625 2.5625,-2.375 0.0625,-0.0625 0.375,-0.34375 2.5625,-2.40625 0.4375,-0.40625 2.53125,-2.4375 0.40625,-0.40625 2.5,-2.46875 0.21875,-0.21875 0.1875,-0.1875 2.46875,-2.5 0.4375,-0.4375 1.5,-1.5625 38.8125,37.4688 c 22.99636,-24.3893 42.89051,-51.74018 59.0625,-81.4063 L -422,893.40625 l 0.125,-0.1875 0.21875,-0.375 0.0625,-0.125 1.6875,-3.09375 1.96875,-3.65625 0.15625,-0.28125 0.125,-0.25 1.625,-3.125 0.28125,-0.53125 1.59375,-3.15625 0.25,-0.53125 1.5625,-3.1875 0.25,-0.53125 1.53125,-3.1875 0.25,-0.5625 1.46875,-3.21875 0.25,-0.5625 1.4375,-3.21875 0.0312,-0.0937 0.21875,-0.46875 1.40625,-3.25 0.25,-0.5625 1.34375,-3.28125 1.5625,-3.84375 0.21875,-0.59375 1.28125,-3.3125 0.21875,-0.5625 1.25,-3.3125 0.0937,-0.28125 0.125,-0.3125 1.1875,-3.34375 0.21875,-0.59375 1.15625,-3.375 0.15625,-0.46875 0.0312,-0.0937 1.125,-3.40625 0.1875,-0.5625 L -394,828.5 l 0.0625,-0.21875 0.125,-0.375 1.03125,-3.4375 0.1875,-0.59375 1,-3.4375 0.15625,-0.59375 0.96875,-3.46875 0.15625,-0.59375 0.78125,-2.96875 49.6875,13.125 c 7.35353,-29.98057 11.28125,-61.31443 11.28125,-93.5625 0,-22.18523 -1.8601,-43.94709 -5.40625,-65.125 l -6.71875,1 -41.78125,6.65625 -0.0937,-0.625 -0.5625,-3.625 -0.0937,-0.625 -0.625,-3.5625 -0.125,-0.625 -0.65625,-3.59375 -0.125,-0.59375 -0.6875,-3.5625 -0.0312,-0.1875 -0.0937,-0.4375 -0.75,-3.53125 -0.125,-0.625 -0.8125,-3.53125 -0.125,-0.59375 -0.84375,-3.5 -0.125,-0.53125 -0.0312,-0.0937 -0.875,-3.46875 -0.15625,-0.625 -0.90625,-3.46875 -0.0312,-0.125 -0.125,-0.46875 -0.96875,-3.46875 -0.15625,-0.59375 -1,-3.4375 -0.1875,-0.59375 -1.03125,-3.4375 -0.1875,-0.5625 -1.09375,-3.40625 -0.1875,-0.59375 -1.125,-3.40625 -0.0625,-0.15625 -0.125,-0.40625 -1.15625,-3.375 -0.21875,-0.59375 -1.1875,-3.34375 -0.21875,-0.5625 -1.25,-3.34375 -0.21875,-0.5625 -1.28125,-3.3125 -0.21875,-0.59375 -1.5625,-3.84375 -1.34375,-3.28125 -0.25,-0.5625 -1.0625,-2.4375 43.8125,-18.84375 c -13.6513,-30.4002 -31.06644,-58.74756 -51.65625,-84.4375 l -36.6875,28.46875 -0.0937,-0.0937 -0.375,-0.5 -2.1875,-2.71875 -0.0937,-0.0937 -0.28125,-0.375 -2.1875,-2.71875 -0.40625,-0.46875 -2.25,-2.6875 -0.375,-0.46875 -2.28125,-2.65625 -0.0937,-0.0937 L -462,503 l -2.3125,-2.65625 -0.40625,-0.4375 -2.34375,-2.59375 -0.40625,-0.4375 -2.375,-2.59375 L -470,494.125 l -0.25,-0.28125 -2.375,-2.53125 -0.4375,-0.4375 -2.40625,-2.53125 -0.4375,-0.4375 -2.46875,-2.46875 -0.40625,-0.4375 -2.5,-2.46875 -0.40625,-0.40625 -2.53125,-2.4375 -0.4375,-0.40625 -2.5625,-2.40625 -0.375,-0.34375 -0.0625,-0.0625 -2.5625,-2.375 -0.4375,-0.40625 -2.625,-2.34375 -0.4375,-0.375 -2.625,-2.3125 -0.28125,-0.21875 -0.1875,-0.1875 -2.65625,-2.28125 -0.0312,-0.0312 -0.40625,-0.34375 -2.71875,-2.25 -0.4375,-0.375 -2.71875,-2.21875 -0.28125,-0.21875 -0.1875,-0.15625 -2.75,-2.1875 -0.46875,-0.34375 -2.78125,-2.15625 -0.46875,-0.375 27.4375,-36.21875 c -26.18134,-19.64939 -54.87626,-36.09429 -85.5625,-48.75 l -17.1875,41.3125 -3.21875,-1.34375 -3.28125,-1.3125 -0.3125,-0.125 -0.25,-0.0937 -3.3125,-1.28125 -0.59375,-0.21875 -3.3125,-1.25 -0.28125,-0.0937 -0.3125,-0.125 -3.34375,-1.21875 -0.5625,-0.1875 -3.375,-1.15625 -0.59375,-0.21875 -3.375,-1.125 -0.53125,-0.15625 -0.0625,-0.0312 -3.40625,-1.0625 -0.59375,-0.1875 -3.40625,-1.03125 -0.59375,-0.1875 -3.4375,-1 -0.625,-0.1875 -3.4375,-0.9375 -0.59375,-0.15625 -3.5,-0.9375 -0.0937,-0.0312 -0.5,-0.125 -4.09375,-1 -3.5,-0.84375 -0.625,-0.15625 -3.53125,-0.78125 -0.59375,-0.125 -3.5625,-0.75 -0.59375,-0.125 -3.5625,-0.71875 -0.0937,0 -0.53125,-0.125 -4.1875,-0.75 -3.59375,-0.625 -0.625,-0.0937 -3.59375,-0.59375 -0.375,-0.0625 -0.25,-0.0312 -3.96875,-0.5625 6.40625,-43.875 c -17.7102,-2.45268 -35.80292,-3.7191 -54.18765,-3.7191 z m -2.71875,282.71875 c 18.24386,-0.41115 36.52456,4.77847 52.1875,13.875 35.61197,20.1637 56.43986,61.98996 53.28125,102.4375 -2.11172,38.4308 -25.85332,75.0508 -60.96875,91.34375 -31.64018,15.68923 -70.83563,12.15865 -99.90625,-7.6875 -37.08824,-24.05279 -54.52022,-72.1067 -45.25,-114.8125 8.53705,-46.9531 52.71562,-84.97833 100.65625,-85.15625 z"
         style="fill:#c5c5c5;fill-opacity:1;stroke:#000000;stroke-width:20;stroke-miterlimit:4;stroke-opacity:1;stroke-dasharray:none" />
      <path
         id="path3608"
         d="m -720.3125,423.71875 c -2.14114,0.003 -4.29494,0.0416 -6.4375,0.0937 -92.77539,0.9057 -183.54225,48.46781 -238.1875,123.375 -51.4332,69.09779 -72.0894,160.54087 -55.0937,244.96875 15.5782,80.98865 64.5569,154.96425 133.81245,199.6875 58.29118,38.2162 130.18928,55.5604 199.5,47.1875 77.64477,-8.9068 151.44437,-49.42825 200.375,-110.6875 51.48409,-63.21341 76.4141,-146.95083 67.65625,-227.8125 -8.23411,-83.0141 -51.16656,-162.02417 -117.46875,-213 -52.28847,-40.71897 -117.78099,-63.91827 -184.15625,-63.8125 z m -2.40625,199.9375 c 18.24386,-0.41115 36.52456,4.77847 52.1875,13.875 35.61197,20.1637 56.43986,61.98996 53.28125,102.4375 -2.11172,38.4308 -25.85332,75.0508 -60.96875,91.34375 -31.64018,15.68923 -70.83563,12.15865 -99.90625,-7.6875 -37.08824,-24.05279 -54.52022,-72.1067 -45.25,-114.8125 8.53705,-46.9531 52.71562,-84.97833 100.65625,-85.15625 z"
         style="fill:#b4b4b4;fill-opacity:1;stroke:#000000;stroke-width:20;stroke-miterlimit:4;stroke-opacity:1;stroke-dasharray:none" />
    </g>
    <path
       style="fill:#828a95;fill-opacity:1;stroke:#000000;stroke-width:20;stroke-linecap:butt;stroke-linejoin:miter;stroke-miterlimit:4;stroke-opacity:1;stroke-dasharray:none"
       d="m -542.85714,469.50504 -348.57143,448.57143 25.71428,20 348.57143,-448.57143 48.57143,-8.57143 62.85714,-94.28571 -60,-42.85714 -85.71428,80 8.57143,45.71428 z"
       id="path3590"
       inkscape:export-filename="/Users/andersbr/Documents/coop/art/web/admin_tools.png"
       inkscape:export-xdpi="5.6116552"
       inkscape:export-ydpi="5.6116552" />
    <path
       style="fill:#828a95;fill-opacity:1;stroke:#000000;stroke-width:20;stroke-linecap:butt;stroke-linejoin:miter;stroke-miterlimit:4;stroke-opacity:1;stroke-dasharray:none"
       d="m -998.22132,407.25798 57.352,67.78995 -18.25223,88.66188 -91.26125,20.85155 -70.4056,-86.02589 c 0,0 -28.3225,88.26556 23.4632,138.18736 55.8354,53.82589 156.45181,20.85563 164.27419,20.85563 l 388.51193,380.69364 c 0,0 62.59539,65.1784 112.13718,7.8142 49.54179,-57.36421 -13.06175,-101.67066 -13.06175,-101.67066 L -870.46782,594.99121 c 0,0 49.54585,-86.04218 -10.42578,-151.22876 -29.37493,-30.59482 -74.81067,-55.46566 -117.32772,-36.50447 z m 513.65795,542.34814 c 27.36117,0 49.53771,22.20506 49.53771,49.56623 0,27.36115 -22.17654,49.53765 -49.53771,49.53765 -27.36117,0 -49.53771,-22.1765 -49.53771,-49.53765 0,-27.36117 22.17654,-49.56623 49.53771,-49.56623 z"
       id="path3594"
       sodipodi:nodetypes="cccccsccscccccsssc"
       inkscape:export-filename="/Users/andersbr/Documents/coop/art/web/admin_tools.png"
       inkscape:export-xdpi="5.6116552"
       inkscape:export-ydpi="5.6116552" />
    <path
       style="fill:#780c00;fill-opacity:1;stroke:#000000;stroke-width:20;stroke-linecap:butt;stroke-linejoin:miter;stroke-miterlimit:4;stroke-opacity:1;stroke-dasharray:none"
       d="m -708.12573,619.67525 89.01921,89.69143 -19.95761,49.50427 c 0,0 -20.79262,-19.59574 -46.06669,0.55668 -25.27405,20.15242 -5.44173,48.26566 -5.44173,48.26566 L -909.04847,1087.837 c 0,0 -50.5481,40.3049 -98.45183,6.1515 -47.9038,-34.1534 -32.9843,-89.9762 -32.9843,-89.9762 l 227.31348,-282.0226 c 0,0 29.95029,14.87774 46.70689,-6.23499 16.75659,-21.11273 6.18987,-61.57884 6.18987,-61.57884 l 52.14863,-34.50062 z"
       id="path3592"
       sodipodi:nodetypes="cccsccsccscc"
       inkscape:export-filename="/Users/andersbr/Documents/coop/art/web/admin_tools.png"
       inkscape:export-xdpi="5.6116552"
       inkscape:export-ydpi="5.6116552" />
  </g>
</svg>
